<?xml version="1.0" encoding="UTF-8"?>
<svg id="Layer_1" data-name="Layer 1" xmlns="http://www.w3.org/2000/svg" viewBox="0 0 1000 1000">
  <defs>
    <style>
      .cls-1 {
        fill: #44220b;
        stroke-width: 0px;
      }
    </style>
  </defs>
  <path class="cls-1" d="M435.87,597.11c-38.5-11.22-60.38-38.14-73.05-74.03-7.31-20.7-10.24-42.27-10.97-64.11-.4-11.99-.11-23.99-.07-35.99.02-5.74,1.7-7.41,7.46-7.43,79.66-.17,159.31-.33,238.97-.49,1.33,0,2.67.14,4,.06,4.93-.29,7.01,2.18,6.88,6.92-.09,3.5-.02,7-.23,10.49-.17,2.9.04,4.05,3.74,3.25,9.49-2.05,19.14-2.55,28.66.12,22.72,6.38,35.59,28.72,28.99,52.5-9.07,32.69-30.63,52.84-63.99,59.94-6.01,1.28-12.12,2.26-18.31,2.04-2.76-.1-4.05,1.4-5.5,3.41-13.02,18-28.61,32.85-50.16,40.23-2.15.74-4.34,1.34-6.48,3.12,3.3,0,6.61,0,9.91,0,23.16.05,46.33.07,69.49.21,1.89.01,4.79-1.31,5.36,1.93.5,2.87-2.24,3.25-4.11,4.17-19.13,9.44-39.56,14.19-60.56,16.99-34.15,4.56-68.45,4.41-102.73,2.76-28.96-1.39-57.57-5.33-84.56-16.9-2.44-1.05-4.81-2.26-7.22-3.38-1.78-.83-3.31-2.05-2.82-4.17.55-2.38,2.74-1.36,4.21-1.37,23.66-.14,47.33-.2,70.99-.28,4.04-.01,8.07,0,12.11,0ZM478.25,431.21c-11.72.54-20.21,5.81-27.61,12.95-22.34,21.53-28.44,58.08-15,88.75,6.51,14.87,16.39,26.42,31.9,32.53,3.3,1.3,5.45.92,7.52-2.18,6.86-10.25,9.26-21.5,8.23-33.65-.89-10.48-5.23-19.8-9.77-29.04-3.78-7.68-6.07-15.72-6.79-24.27-1.34-15.96,2.81-30.53,11.52-45.1ZM483.89,567.18c9.28-.78,18.45-5.19,25.37-11.73,26.64-25.17,30.61-72.19,8.55-102.53-7.09-9.75-15.79-17.49-27.72-20.96-2.37-.69-3.7-.44-4.65,1.99-4.83,12.28-6.94,24.89-5.06,38.06,1.32,9.23,5.56,17.3,9.89,25.32,8.13,15.06,9.77,30.84,5.46,47.27-2.12,8.1-6.49,15.15-11.84,22.57ZM594.97,529.19c25.66,1.62,55.72-25.32,56.76-50.59.51-12.54-5.93-20.85-18.14-23.56-6.18-1.38-12.16-.08-18.25.8-5.75.83-7.67,3.81-7.56,9.35.18,8.82-1.19,17.53-2.55,26.23-2.02,12.94-5.77,25.42-10.26,37.77Z"/>
  <path class="cls-1" d="M352.36,658.96c2.11.79,4.16,1.57,5.59,3.35,5.48,6.86,1.38,17.87-7.27,19.18-7.04,1.07-14.15.24-21.23.46-.64.02-1.08-.23-1.32-.84-.29-.72,0-1.3.53-1.68,2.17-1.54,2.53-3.79,2.54-6.2.05-8.3.07-16.59.16-24.89.03-2.48-.2-4.73-2.19-6.59-1.15-1.08-.67-2.34.76-2.31,5.95.12,11.91-.47,17.84.32,4.46.59,8,2.5,9.28,7.15,1.3,4.75-.3,8.72-4.69,12.04ZM339.89,669.42h-.15c0,2.19,0,4.39,0,6.58,0,.54-.15,1.24.72,1.25,2.98.03,6.06.17,8.47-1.93,2.54-2.2,2.96-5.18,2.27-8.34-.6-2.78-2.48-4.31-5.14-5.02-1.59-.43-3.22-.37-4.84-.47-1.07-.06-1.36.39-1.35,1.34.03,2.19,0,4.39,0,6.58ZM340.14,650.68s-.03,0-.04,0c0,1.13,0,2.26,0,3.39q-.04,3.64,3.63,2.85c.07-.01.14-.02.21-.03,3.33-.76,5.11-3.57,4.69-7.4-.36-3.34-2.51-5.17-5.92-5.44-2.16-.18-2.9.48-2.61,2.63.18,1.32.03,2.68.03,4.02Z"/>
  <path class="cls-1" d="M517.89,639.42c4.03.04,8.08-.11,12.05.77,5.82,1.29,8.46,4.3,9.21,10.34.62,5.01-1.84,9.85-6.41,12.11-1.42.7-1.65,1.13-.77,2.52,2.03,3.22,3.86,6.58,5.75,9.88.95,1.66,1.91,3.32,3.68,4.28.71.38,1,.99.8,1.78-.23.93-1,.84-1.71.85-.92,0-1.86-.12-2.76.03-4.36.69-6.86-1.45-8.62-5.19-1.71-3.64-3.7-7.14-5.6-10.69-.35-.66-.61-1.47-1.59-1.52-.81-.04-1.52-.13-1.5,1.11.06,3.47.03,6.94,0,10.41-.01,1.51.88,2.46,1.89,3.39.53.49,1.01,1.09.64,1.86-.33.69-1.04.61-1.68.61-3.47,0-6.94,0-10.41,0-.72,0-1.47.04-1.75-.83-.25-.77.08-1.4.66-1.88,1.67-1.4,2.13-3.29,2.14-5.32.05-9.21.07-18.42.12-27.63,0-1.62-.79-2.8-1.86-3.9-.59-.6-1.23-1.3-.88-2.23.4-1.07,1.41-.73,2.22-.74,2.12-.02,4.25,0,6.38,0ZM520.53,652.22h-.06c0,2.26-.01,4.53,0,6.79,0,.51-.25,1.11.58,1.36,3.05.92,7.59-1.36,8.77-4.46,2.5-6.58-.8-11.41-7.87-11.6-1.12-.03-1.49.18-1.46,1.32.07,2.19.02,4.39.02,6.58Z"/>
  <path class="cls-1" d="M461.41,664.31c0-6.37-.03-12.6.02-18.82.01-1.45-.68-2.4-1.69-3.25-.68-.58-1.25-1.25-.89-2.19.38-1,1.33-.6,2.05-.61,2.27-.05,4.54,0,6.81-.02.73,0,1.47-.03,1.79.79.3.77,0,1.42-.62,1.87-1.78,1.3-1.92,3.2-1.93,5.13-.05,10.42-.06,20.84-.14,31.26,0,1.22.65,2.87-1.2,3.43-2.07.63-4.18-.13-5.23-1.83-2.71-4.39-5.38-8.81-8.08-13.2-2.63-4.27-5.28-8.53-7.93-12.8-.17.12-.37.19-.37.26-.09,6.87-.17,13.75-.26,20.62-.02,1.71.37,3.2,1.86,4.27.65.46,1.13,1.16.83,2.02-.3.87-1.13.7-1.81.7-2.48.01-4.96,0-7.44,0-.65,0-1.36.04-1.65-.66-.3-.71-.08-1.43.54-1.91,1.77-1.37,2.02-3.27,2.04-5.33.08-8.86.17-17.72.33-26.58.04-2.02-.36-3.76-1.94-5.15-.65-.57-1.18-1.36-.83-2.25.36-.91,1.31-.66,2.06-.67,1.63-.02,3.28.14,4.89-.04,2.25-.25,3.54.81,4.63,2.61,4.33,7.13,8.72,14.22,13.1,21.32.21.34.26.82,1.08,1Z"/>
  <path class="cls-1" d="M425.14,681.95c-1.63,0-3.26,0-4.89,0-.7,0-1.5.14-1.79-.75-.23-.7-.1-1.36.38-1.98,1.35-1.76,1.18-6.82-.24-8.4-.4-.44-.9-.34-1.38-.34-3.12,0-6.24,0-9.36.01-.45,0-1.07-.22-1.27.44-.46,1.48-.89,2.98-1.3,4.48-.47,1.72.31,2.99,1.5,4.15.45.44.77,1.09.48,1.75-.31.7-1,.65-1.65.65-2.48-.01-4.96,0-7.44,0-.68,0-1.49.19-1.77-.74-.22-.71.16-1.3.68-1.67,1.92-1.38,2.59-3.42,3.21-5.56,2.63-9.01,5.29-18,8.01-26.98.56-1.84.68-3.42-.87-4.85-.55-.51-.97-1.25-.53-2.1.42-.82,1.19-.62,1.87-.63,2.13-.01,4.26.07,6.38-.03,1.87-.08,2.8.74,3.35,2.5,3.33,10.63,6.74,21.23,10.09,31.85.62,1.97,1.24,3.89,2.86,5.33.6.53.88,1.32.58,2.14-.37.99-1.27.72-2.01.73-1.63.02-3.26,0-4.89,0ZM412.45,650.57c-1.45,5.09-2.69,9.6-4.02,14.08-.29.98.08,1.08.86,1.08,2.05-.02,4.1-.08,6.14,0,1.43.06,1.83-.26,1.32-1.75-1.45-4.24-2.75-8.53-4.3-13.42Z"/>
  <path class="cls-1" d="M573.54,681.95c-1.63,0-3.26,0-4.89,0-.63,0-1.37.1-1.64-.65-.25-.68-.23-1.44.32-1.99.82-.82,1.53-1.62,1.34-2.93-.27-1.9-.96-3.67-1.51-5.48-.17-.55-.84-.42-1.32-.42-3.05,0-6.09.03-9.14,0-1-.01-1.56.25-1.75,1.34-.19,1.1-.56,2.19-.93,3.25-.54,1.54-.44,2.89.88,4.04.65.57,1.25,1.3.84,2.22-.4.91-1.33.62-2.08.62-2.34.02-4.68.02-7.01,0-.54,0-1.19.16-1.45-.56-.2-.56-.22-1.19.28-1.57,3.48-2.66,3.69-6.84,4.85-10.55,2.32-7.4,4.44-14.85,6.72-22.26.58-1.87.53-3.45-.92-4.85-.6-.58-.97-1.28-.62-2.09.35-.82,1.17-.65,1.86-.65,2.05,0,4.11.06,6.16,0,1.91-.06,2.94.76,3.52,2.62,3.31,10.7,6.72,21.38,10.06,32.07.57,1.84,1.21,3.61,2.62,5,.56.56,1.02,1.23.69,2.09-.37.96-1.24.75-2,.76-1.63,0-3.26,0-4.89,0ZM561.03,650.77c-1.43,5.04-2.66,9.49-3.97,13.91-.29.96.06,1.08.86,1.07,2.12-.04,4.25-.1,6.36-.03,1.28.05,1.35-.35.99-1.45-1.4-4.27-2.7-8.58-4.24-13.5Z"/>
  <path class="cls-1" d="M378.28,681.95c-3.76,0-7.52.01-11.27,0-.82,0-1.8.22-2.19-.83-.33-.91.06-1.65.78-2.24,1.45-1.17,1.87-2.76,1.89-4.53.09-9.29.2-18.57.3-27.86.02-1.74-.72-3.11-1.92-4.33-.52-.53-1.14-1.17-.79-2.05.39-.97,1.29-.68,2.03-.69,7.44-.05,14.89-.06,22.33-.13.93,0,1.54.22,1.63,1.2.22,2.25.46,4.51.6,6.76.1,1.61-.88,1.35-1.78.81-.47-.28-.83-.76-1.2-1.19-1.44-1.66-3.25-2.42-5.44-2.36-1.84.05-3.69.08-5.53-.01-1.15-.05-1.44.37-1.43,1.46.04,3.47,0,6.95-.05,10.42,0,.79.04,1.4,1.09,1.33,2.89-.19,5.95.72,8.43-1.82.86-.88,1.91-.48,1.87,1.03-.06,2.27-.12,4.54-.26,6.8-.09,1.36-.96,1.37-1.68.57-2.5-2.79-5.78-1.68-8.79-1.89-.88-.06-.76.62-.77,1.18-.05,4.04-.08,8.08-.18,12.12-.02,1.01.26,1.38,1.31,1.33,2.34-.11,4.68-.02,7.01-.19,2.4-.18,4.17-1.58,5.65-3.39.61-.74,1.16-1.85,2.36-1.31,1.09.49.65,1.65.57,2.49-.2,1.96-.57,3.91-.91,5.86-.21,1.21-1.03,1.49-2.18,1.48-3.83-.05-7.66-.02-11.49-.02Z"/>
  <path class="cls-1" d="M483.13,660.13c.1,4.2.71,8.32,2.67,12.09,2.94,5.66,9.57,6.72,14.26,2.34.36-.34.7-.7,1.05-1.05.74-.73,1.42-1.83,2.65-1.16,1.11.61.95,1.89.82,2.88-.47,3.5-3.16,5.09-6,6.25-6.91,2.81-15.36.51-20.18-5.32-7.02-8.49-6.08-24.81,1.88-32.44,5.56-5.33,15.14-6.62,21.94-2.98,1.15.62,1.81,1.41,1.81,2.82,0,2.05.24,4.1.3,6.15.03,1.01-.12,2.11-1.37,2.31-1.19.19-1.76-.6-2.09-1.67-.23-.74-.57-1.45-.92-2.14-2.53-5.04-8.02-5.94-12.11-1.99-3.51,3.39-4.22,7.86-4.7,12.4-.05.49,0,.99,0,1.49Z"/>
  <path class="cls-1" d="M597.95,639.4c3.54,0,7.08.08,10.62-.04,1.39-.05,1.94.54,2.07,1.74.23,2.04.41,4.08.59,6.12.04.53.26,1.19-.46,1.46-.6.23-1.16.01-1.49-.5-2.98-4.56-7.64-3.43-11.93-3.57-.85-.03-1.09.35-1.09,1.14,0,3.75-.04,7.51-.09,11.26-.01.86.4,1.08,1.17,1.07,2.81-.03,5.67.4,8.08-1.71.91-.8,1.94-.77,1.91.88-.03,2.12-.1,4.25-.22,6.37-.09,1.6-1.03,1.91-2.06.84-2.29-2.37-5.17-1.87-7.96-1.95-1.01-.03-1.11.57-1.11,1.37,0,3.68-.06,7.36-.05,11.05,0,1.62.46,3.05,1.85,4.08.69.51,1.31,1.21.99,2.17-.37,1.09-1.38.77-2.18.78-3.33.02-6.66,0-9.99,0-.78,0-1.65.11-2.01-.8-.33-.84.14-1.55.76-2.03,1.68-1.32,2.07-3.07,2.09-5.08.08-8.64.18-17.28.34-25.91.04-2.16-.38-4.04-1.98-5.59-.6-.58-1.26-1.32-.87-2.24.4-.94,1.38-.84,2.22-.84,3.61-.01,7.22,0,10.84,0v-.05Z"/>
  <path class="cls-1" d="M632.65,660.47c0,4.32-.01,8.64,0,12.97,0,2.13.02,4.26,1.85,5.86.56.49,1.05,1.17.62,2.06-.42.86-1.21.59-1.87.6-3.26.02-6.52,0-9.78,0-.72,0-1.46.06-1.77-.81-.24-.7.06-1.27.56-1.7,1.67-1.45,1.92-3.43,1.94-5.42.08-9.35.08-18.71.18-28.06.01-1.3-.47-1.58-1.62-1.41-2.48.35-4.61,1.33-6.22,3.28-.63.77-1.43,1.35-2.38.83-.9-.49-.29-1.41-.19-2.12.26-1.89.64-3.76.9-5.65.15-1.13.7-1.54,1.84-1.52,7.86.1,15.73.43,23.59.06,1.08-.05,1.76.43,1.92,1.54.28,1.96.6,3.91.83,5.88.08.66.27,1.53-.61,1.84-.79.28-1.48.02-2.06-.67-1.49-1.77-3.23-3.04-5.68-3.34-1.64-.2-1.89.3-1.87,1.74.07,4.68.03,9.35.03,14.03-.07,0-.13,0-.2,0Z"/>
  <path class="cls-1" d="M476.93,282.68c18.16,13.02,23.33,33.68,14.13,53.45-2.31,4.96-5.04,9.73-7.7,14.53-6.65,12-7.19,24.29-1.88,36.89.62,1.47,1.2,2.95,1.39,4.65-7.98-6.61-12.95-14.97-15.13-25.13-1.84-8.54-.22-16.52,3.48-24.18,2.02-4.18,4.3-8.25,6.65-12.26,8.15-13.91,7.97-28.06,1.44-42.44-.66-1.46-1.28-2.95-2.38-5.5Z"/>
  <path class="cls-1" d="M564.67,717.32c-5.2,0-8.95-3.76-8.96-8.96,0-4.93,4.15-9,9.13-8.95,5.07.05,8.93,3.98,8.9,9.09-.03,5.2-3.76,8.83-9.07,8.82ZM559.64,708.44c.01,3.28,2.08,5.52,5.1,5.5,2.89-.02,5.15-2.44,5.16-5.55,0-3.05-2.35-5.61-5.16-5.59-2.81.02-5.1,2.56-5.09,5.64Z"/>
  <path class="cls-1" d="M419.37,717.29c-5.18,0-9.04-3.83-9.02-8.94.02-5,4.05-8.96,9.1-8.95,5.08.02,9.03,3.96,9.02,9.02,0,5.1-3.88,8.87-9.1,8.87ZM424.52,708.38c.01-3.17-2.23-5.62-5.11-5.58-2.85.04-5.18,2.54-5.22,5.59-.04,3.01,2.34,5.54,5.2,5.51,3.02-.03,5.11-2.29,5.12-5.53Z"/>
  <path class="cls-1" d="M478.88,708.53c0-2.41.03-4.82-.02-7.23-.02-1.09.17-1.68,1.49-1.64,3.26.09,6.52.12,9.78,0,1.57-.06,1.29.84,1.28,1.73,0,.87.33,1.88-1.25,1.79-1.91-.12-3.83.08-5.74-.04-1.42-.09-1.78.41-1.79,1.78-.02,1.45.35,2.06,1.89,1.92,1.34-.12,2.7.07,4.04-.04,1.45-.13,1.38.72,1.39,1.71.01.96-.04,1.64-1.33,1.55-1.55-.11-3.12.05-4.68-.04-1.78-.1-1.17,1.16-1.24,2.02-.08.93-.19,1.85,1.31,1.77,2.05-.11,4.12.07,6.16-.05,1.47-.08,1.38.75,1.36,1.72-.02.91.23,1.84-1.3,1.8-3.4-.09-6.81-.06-10.21-.01-.99.01-1.18-.4-1.17-1.26.04-2.48.01-4.96.01-7.44h0Z"/>
  <path class="cls-1" d="M500.53,708.25c0-2.34.06-4.68-.02-7.02-.04-1.14.21-1.61,1.48-1.58,3.19.1,6.38.12,9.57,0,1.5-.06,1.37.77,1.33,1.71-.03.87.3,1.88-1.27,1.79-1.98-.12-3.97.06-5.95-.04-1.7-.09-1.29,1.05-1.33,1.97-.04.93-.22,1.85,1.3,1.73,1.55-.13,3.12.05,4.67-.04,1.35-.08,1.27.73,1.25,1.62-.02.86.13,1.73-1.25,1.62-1.27-.1-2.55-.02-3.83-.01-1.97,0-2.89,1.44-2.13,3.22.32.75.94.51,1.45.51,1.91.03,3.83.08,5.74-.03,1.49-.09,1.35.82,1.33,1.76-.02.88.28,1.84-1.28,1.8-3.26-.1-6.52-.07-9.78-.02-1.03.02-1.34-.32-1.32-1.33.06-2.55.02-5.1.02-7.66Z"/>
  <path class="cls-1" d="M541.8,717.29c-4.11,0-7.6-2.44-8.74-6.12-1.18-3.78.23-7.9,3.46-10.12,3.37-2.32,7.76-2.22,10.83.37.47.39,2,.87.83,1.82-.78.64-1.41,2.6-3.17.9-1.92-1.85-4.4-1.77-6.33-.14-2.07,1.76-2.63,4.78-1.31,7.12,1.28,2.27,3.75,3.24,6.14,2.36.59-.22,1.15-.54,1.69-.87,1.19-.74,3.14-.11,3.64,1.17.23.57-.26.73-.51,1-1.44,1.57-3.92,2.52-6.53,2.52Z"/>
  <path class="cls-1" d="M396.35,717.27c-4.18,0-7.54-2.37-8.72-6.12-1.17-3.74.16-7.8,3.27-10.01,3.26-2.32,7.61-2.37,10.67.02.59.46,2.24.93,1.1,2.11-.75.77-1.59,2.55-3.33.7-1.59-1.7-4.22-1.57-6.01-.16-2.08,1.64-2.74,4.67-1.54,7.1,1.08,2.18,3.43,3.38,5.62,2.77.8-.22,1.57-.63,2.29-1.07,1.23-.75,3.11-.2,3.64,1.11.28.69-.34.86-.64,1.16-1.51,1.54-3.87,2.39-6.37,2.39Z"/>
  <path class="cls-1" d="M436.85,708.43c0-2.41.06-4.82-.03-7.23-.04-1.24.4-1.57,1.58-1.55,3.26.06,6.52.09,9.78-.02,1.56-.06,1.27.88,1.29,1.77.02.93.21,1.85-1.31,1.77-2.05-.11-4.11.07-6.16-.05-1.84-.11-1.41,1.11-1.42,2.1,0,.94-.33,2.08,1.36,1.93,1.34-.12,2.7.05,4.03-.05,1.35-.1,1.85.27,1.84,1.74-.01,1.39-.49,1.64-1.73,1.61-1.75-.03-4.01-.76-5.13.3-1.14,1.08-.37,3.36-.32,5.1.04,1.42-.67,1.49-1.68,1.37-.91-.11-2.24.56-2.15-1.35.11-2.47.03-4.96.03-7.44h.03Z"/>
  <path class="cls-1" d="M513.49,387.9c-11.75-6.97-15.45-18.11-9.94-30.49,1.61-3.62,3.49-7.18,5.64-10.51,7.13-11.04,9.36-22.51,3.14-35.29,10.08,6.64,14.47,21.8,9.96,33.52-1.48,3.84-3.59,7.45-5.51,11.12-6.72,12.82-7.35,18.64-3.29,31.65Z"/>
  <path class="cls-1" d="M449.61,390.5c-12.65-4.75-17.89-19.37-12.52-32.18,2.23-5.32,5.29-10.32,8.22-15.31,5.73-9.76,6.42-19.59.74-29.85,10.17,6.67,14.51,19.3,10.19,30.37-2.04,5.23-4.99,10.09-7.39,15.18-4.9,10.41-6.18,20.84.75,31.79Z"/>
  <path class="cls-1" d="M458.01,708.49c0-2.41.05-4.82-.02-7.23-.03-1.14.25-1.63,1.51-1.59,3.19.08,6.38.09,9.57-.02,1.46-.05,1.36.76,1.34,1.72-.02.91.22,1.87-1.3,1.79-1.84-.1-3.69.1-5.52-.04-1.64-.13-1.85.63-1.8,1.98.05,1.21-.08,2.29,1.7,2.05,1.05-.14,2.14.1,3.18-.06,1.95-.29,2.23.69,2.1,2.3-.07.91-.49,1.04-1.21,1.03-1.42-.01-2.84.07-4.25-.03-1.26-.09-1.59.42-1.51,1.58.09,1.27-.08,2.56.04,3.82.17,1.87-1.13,1.32-2.09,1.42-1.13.12-1.86,0-1.78-1.51.13-2.4.03-4.82.03-7.23Z"/>
  <path class="cls-1" d="M581.67,712.87c1.29.16,2.21.81,2.2,2.14-.01,1.39-.92,2.24-2.32,2.22-1.43-.03-2.26-1-2.2-2.35.06-1.28,1.02-1.94,2.31-2.01Z"/>
</svg>